<?xml version="1.0" encoding="UTF-8"?>
<!DOCTYPE svg PUBLIC "-//W3C//DTD SVG 1.1//EN" "http://www.w3.org/Graphics/SVG/1.1/DTD/svg11.dtd">
<svg version="1.1" xmlns="http://www.w3.org/2000/svg" xmlns:xlink="http://www.w3.org/1999/xlink" x="0" y="0" width="20" height="20" viewBox="0, 0, 20, 20">
  <g id="Layer_1">
    <path d="M9.999,0.738 C4.756,0.738 0.503,4.989 0.503,10.235 C0.503,14.431 3.224,17.99 6.998,19.246 C7.473,19.333 7.646,19.04 7.646,18.788 C7.646,18.563 7.638,17.965 7.633,17.173 C4.992,17.747 4.434,15.9 4.434,15.9 C4.002,14.803 3.38,14.51 3.38,14.51 C2.517,13.922 3.445,13.933 3.445,13.933 C4.398,14 4.9,14.912 4.9,14.912 C5.747,16.363 7.123,15.944 7.664,15.701 C7.75,15.088 7.995,14.669 8.266,14.432 C6.158,14.192 3.941,13.377 3.941,9.738 C3.941,8.701 4.311,7.853 4.918,7.19 C4.82,6.949 4.494,5.983 5.012,4.676 C5.012,4.676 5.808,4.421 7.623,5.65 C8.38,5.439 9.193,5.334 10,5.33 C10.807,5.334 11.619,5.439 12.378,5.65 C14.191,4.421 14.987,4.676 14.987,4.676 C15.505,5.983 15.179,6.949 15.082,7.19 C15.69,7.853 16.058,8.701 16.058,9.738 C16.058,13.386 13.837,14.189 11.722,14.424 C12.062,14.717 12.366,15.297 12.366,16.183 C12.366,17.452 12.354,18.477 12.354,18.788 C12.354,19.042 12.526,19.338 13.007,19.245 C16.778,17.986 19.497,14.429 19.497,10.235 C19.497,4.989 15.244,0.738 9.999,0.738" fill="#161514"/>
  </g>
</svg>
