<svg xmlns="http://www.w3.org/2000/svg" width="44" height="39">
  <path fill="#FFF" fill-rule="evenodd" d="M34.64 23.408v-.87c0-.38.006-.822.02-1.328.013-.507.037-1.067.07-1.682.034-.614.078-1.252.133-1.914.026-.324.08-.87.16-1.64.083-.77.19-1.635.326-2.594.13-.96.3-1.95.5-2.978.2-1.026.44-1.965.71-2.816.27-.85.58-1.55.93-2.097.35-.55.74-.82 1.17-.82.24 0 .43.14.55.42.13.28.19.79.19 1.52 0 .55-.04 1.3-.12 2.25-.07.71-.19 1.47-.36 2.27-.17.79-.37 1.61-.6 2.43-.23.82-.49 1.64-.76 2.46-.28.82-.55 1.6-.82 2.34-.65 1.74-1.36 3.49-2.13 5.25v-.2l.03-.007zm-10.846 8.06c1.01-5.49 4.284-6.62 5.846-6.844.074 3.202.422 6.195 1.032 8.478-1.27 3.54-7.804 4.96-6.878-1.634zM12.872 8.032c1.41-2.51 2.122-.56 2.137.648 0 .433-.12.986-.35 1.66-.23.677-.52 1.403-.87 2.18-.35.776-.75 1.566-1.19 2.37-.41.752-.81 1.453-1.19 2.104l-1.31-.017c.24-1.113 1.47-6.65 2.76-8.945h.01zM43.74 33.054c-1.75-1.926-2.59-1.466-3.476-.676-.883.787-2.99 3.09-4.44.635-1.45-2.453.628-7.723.988-8.52.44-.975 5.07-10.607 5.9-13.937.567-2.27 1.648-8.68-1.51-10.09-2.86-1.28-5.432-.23-8.872 6.974-1.542 3.23-2.407 8.175-2.64 13.122-1.418.135-7.186 1.098-9.666 7.92-.174.48-.31.937-.416 1.374-.688 2.01-1.738 3.153-3.16 4.006-1.585.95-3.255 1.24-4.508.952-2.955-.678-2.733-6.804-2.733-6.804 0-.833.067-1.425.094-1.65.25-2.074 1.54-3.538 1.93-4.058.4-.52.8-1.05 1.19-1.59 0 0 .17-.213.47-.61l7.46.412c.95-.03 1.18-.724 1.27-1.26.09-.533.06-.895.06-.895-.01-.54-.36-1.24-1.5-1.26l-5.21-.07c.36-.57.73-1.2 1.11-1.88.45-.78.82-1.56 1.15-2.32.33-.76.58-1.51.77-2.25.19-.74.29-1.44.29-2.1 0-.79-.09-1.54-.27-2.26-.18-.72-.44-1.36-.78-1.9-.33-.54-.74-.98-1.22-1.3-.48-.33-1.01-.49-1.59-.49-.906 0-1.77.4-2.594 1.2-.823.8-1.582 1.87-2.28 3.2-.72 1.35-1.35 2.87-1.91 4.58-.377 1.15-.733 2.47-1.036 3.76 0 0-.184.61-.43 1.635L.95 16.86c-.59.017-.965.465-.948 1.004l.184.644c.2.565.503.803 1.004.947l4.382.242c-.995 5.406-1.746 14.324 3.08 18.096.052.042.12.095.18.136 2.752 1.92 7.392 1.09 10.882-3.58C20.826 37.52 24 38.6 24 38.6s4.124 1.57 7.62-2.964v.007c2.803 5.255 6.685 2.61 7.853 2.046 1.17-.56 3.76-2.42 3.76-2.42 1.357-.95.51-2.22.51-2.22h-.003z"/>
</svg>
